<?xml version="1.0" standalone="no"?>
<!DOCTYPE svg PUBLIC "-//W3C//DTD SVG 20010904//EN"
 "http://www.w3.org/TR/2001/REC-SVG-20010904/DTD/svg10.dtd">
<svg version="1.0" xmlns="http://www.w3.org/2000/svg"
 width="564.000000pt" height="564.000000pt" viewBox="0 0 564.000000 564.000000"
 preserveAspectRatio="xMidYMid meet">

<g transform="translate(0.000000,564.000000) scale(0.100000,-0.100000)"
fill="#000000" stroke="none">
<path d="M0 2820 l0 -2820 2820 0 2820 0 0 2820 0 2820 -2820 0 -2820 0 0
-2820z m2273 1569 c115 -18 215 -44 317 -84 157 -61 158 -61 215 -36 297 134
611 166 920 95 314 -72 626 -263 817 -499 88 -108 195 -329 218 -448 5 -28 17
-88 25 -132 22 -107 16 -427 -9 -495 -8 -25 -16 -59 -16 -76 0 -62 -111 -328
-159 -381 -9 -10 -29 -36 -45 -58 -56 -75 -179 -195 -265 -256 -189 -134 -472
-247 -711 -282 -94 -14 -288 -13 -403 2 -92 12 -322 77 -394 111 -52 24 -61
25 -103 4 -18 -9 -46 -20 -64 -25 -17 -4 -89 -26 -161 -47 -198 -60 -317 -72
-517 -52 -416 42 -785 239 -978 521 -89 131 -144 266 -187 460 -25 118 -26
494 0 619 43 209 105 369 198 506 53 80 204 239 274 290 189 138 382 219 615
259 95 16 319 18 413 4z"/>
<path d="M1915 4353 c-38 -5 -148 -29 -200 -43 -22 -6 -57 -15 -77 -21 -21 -5
-66 -23 -100 -39 -34 -17 -65 -30 -70 -30 -5 0 -21 -8 -36 -18 -15 -10 -67
-45 -117 -78 -217 -142 -381 -371 -465 -647 -73 -242 -68 -678 11 -917 133
-402 475 -681 939 -763 272 -49 327 -49 535 -6 110 23 325 94 325 108 0 7 -86
71 -96 71 -12 0 -130 100 -180 152 -134 139 -213 288 -269 503 l-31 120 -60
-3 c-62 -2 -96 -12 -197 -56 -21 -9 -42 -16 -48 -16 -12 0 -116 -66 -136 -86
-8 -8 -18 -14 -23 -14 -14 0 -158 -147 -164 -167 -3 -10 -15 -24 -26 -31 -17
-10 -21 -10 -26 3 -12 31 110 167 226 251 105 76 232 129 365 154 39 8 72 15
74 17 2 1 3 89 2 195 -4 352 59 599 213 833 86 132 261 304 359 354 15 8 27
22 27 31 0 34 -217 106 -409 135 -88 14 -273 18 -346 8z m-310 -667 c30 -30
41 -74 55 -208 15 -150 -7 -289 -51 -316 -69 -43 -124 81 -124 283 0 132 9
190 35 233 24 39 52 41 85 8z"/>
<path d="M1550 3634 c-22 -56 -31 -193 -19 -273 11 -78 36 -144 54 -143 50 3
41 380 -10 431 -12 13 -16 11 -25 -15z"/>
<path d="M3230 4353 c-19 -2 -55 -8 -80 -14 -25 -6 -65 -15 -90 -21 -78 -18
-221 -70 -236 -86 -13 -13 -13 -17 2 -33 9 -10 26 -21 38 -25 36 -11 198 -139
274 -217 149 -151 285 -405 312 -584 6 -37 16 -99 21 -138 15 -93 5 -368 -16
-475 -25 -129 -84 -283 -143 -372 -28 -44 -26 -70 8 -79 40 -11 254 -10 312 2
219 44 414 158 595 348 55 59 74 73 84 64 9 -9 7 -18 -9 -40 -33 -47 -183
-185 -247 -228 -83 -55 -90 -60 -175 -101 -41 -20 -83 -40 -92 -45 -9 -4 -63
-18 -120 -30 -119 -26 -283 -30 -367 -10 l-54 14 -26 -33 c-40 -51 -124 -140
-131 -140 -4 0 -23 -15 -42 -32 -20 -18 -81 -62 -136 -98 -55 -36 -101 -71
-101 -78 -3 -46 408 -142 609 -142 64 0 267 33 331 53 24 8 82 27 129 42 593
191 923 691 872 1317 -39 463 -274 806 -700 1022 -157 79 -259 113 -439 146
-100 19 -272 24 -383 13z m795 -635 c65 -58 78 -413 19 -505 -32 -51 -88 -17
-120 72 -24 70 -25 331 0 389 31 73 55 83 101 44z"/>
<path d="M3965 3660 c-12 -24 -17 -62 -18 -149 -1 -126 14 -218 42 -252 l17
-22 15 34 c19 45 19 252 0 336 -18 81 -34 96 -56 53z"/>
<path d="M2622 4115 c-95 -68 -174 -141 -232 -214 -19 -24 -40 -48 -46 -55
-19 -20 -99 -170 -127 -236 -41 -100 -74 -225 -88 -335 -17 -127 -17 -422 -1
-451 10 -19 23 -22 119 -27 230 -11 322 -54 766 -356 69 -47 186 -103 210 -99
11 2 24 10 28 18 114 200 158 333 180 546 41 401 -77 768 -328 1019 -117 117
-314 255 -364 255 -16 0 -62 -26 -117 -65z m250 -383 c46 -45 72 -341 39 -452
-31 -109 -92 -107 -139 3 -24 56 -35 211 -22 316 15 122 37 166 78 156 15 -3
35 -14 44 -23z"/>
<path d="M2808 3678 c-9 -16 -13 -67 -13 -173 1 -132 3 -156 23 -198 12 -27
26 -46 30 -43 48 30 35 417 -15 433 -6 2 -18 -6 -25 -19z"/>
<path d="M2143 2713 c17 -184 147 -432 308 -592 68 -67 223 -177 266 -187 58
-15 265 123 406 269 37 39 67 75 67 81 0 6 -10 16 -23 22 -90 44 -196 106
-277 162 -172 119 -214 146 -306 194 -118 61 -257 98 -365 98 l-81 0 5 -47z"/>
</g>
</svg>
