<?xml version="1.0" standalone="no"?>
<!DOCTYPE svg PUBLIC "-//W3C//DTD SVG 20010904//EN"
 "http://www.w3.org/TR/2001/REC-SVG-20010904/DTD/svg10.dtd">
<svg version="1.0" xmlns="http://www.w3.org/2000/svg"
 width="564.000000pt" height="564.000000pt" viewBox="0 0 564.000000 564.000000"
 preserveAspectRatio="xMidYMid meet">

<g transform="translate(0.000000,564.000000) scale(0.100000,-0.100000)"
fill="#000000" stroke="none">
<path d="M0 2820 l0 -2820 2820 0 2820 0 0 2820 0 2820 -2820 0 -2820 0 0
-2820z m3085 1246 c200 -31 402 -107 554 -210 29 -20 58 -36 65 -36 6 0 4 5
-4 10 -8 5 -10 10 -4 10 7 0 22 -9 35 -21 21 -18 21 -20 4 -14 -17 5 -17 3 4
-19 14 -15 32 -26 41 -26 9 0 27 -12 41 -27 18 -20 19 -24 4 -13 -11 8 13 -22
54 -67 40 -46 79 -83 86 -83 8 0 17 -4 20 -10 4 -6 -1 -7 -11 -3 -11 4 -6 -9
16 -38 17 -24 38 -43 46 -41 8 2 12 -3 8 -12 -6 -15 31 -96 44 -96 4 0 16 -29
26 -65 15 -54 21 -63 33 -54 11 10 11 14 1 20 -9 6 -7 9 7 10 11 0 14 3 8 6
-18 7 -16 20 2 20 9 0 15 -9 15 -22 0 -18 21 -30 148 -79 278 -110 565 -271
677 -380 63 -62 131 -164 146 -219 19 -70 13 -150 -15 -205 -101 -199 -489
-350 -955 -372 l-185 -9 -28 -33 c-16 -20 -23 -37 -18 -42 6 -6 1 -14 -13 -21
-12 -6 -24 -8 -27 -4 -3 4 -11 0 -19 -8 -11 -12 -11 -14 2 -11 9 2 16 -1 16
-7 0 -5 -7 -9 -15 -7 -8 2 -14 -4 -14 -13 0 -9 -4 -14 -9 -11 -5 3 -12 -6 -15
-20 -9 -34 -29 -54 -55 -54 -11 0 -23 -5 -26 -11 -4 -5 -17 -9 -28 -7 -27 3
-50 -10 -41 -24 9 -13 -61 -74 -111 -97 -22 -10 -67 -26 -100 -36 -33 -9 -66
-22 -72 -27 -7 -6 -42 -10 -79 -10 -61 0 -66 -1 -61 -19 4 -16 3 -18 -8 -9 -8
7 -33 9 -67 4 -29 -4 -68 -7 -86 -7 -27 0 -33 -4 -29 -19 3 -11 0 -18 -9 -18
-8 0 -14 6 -14 13 0 8 -3 7 -10 -3 -11 -18 -67 -14 -87 6 -8 8 -21 14 -30 14
-13 0 -13 -3 -3 -15 10 -12 9 -15 -7 -15 -10 0 -29 7 -41 16 -13 9 -34 14 -48
11 -13 -2 -24 1 -25 7 -1 6 -4 0 -8 -14 -6 -21 -12 -25 -41 -22 -18 2 -45 9
-59 14 -14 6 -30 12 -36 13 -27 5 -28 8 -5 15 21 7 19 8 -17 9 -23 1 -54 7
-69 13 -20 9 -28 10 -31 1 -3 -8 -13 -7 -34 4 -17 8 -49 17 -72 20 -30 4 -49
14 -68 36 -17 21 -28 27 -33 19 -12 -20 -56 -13 -94 15 -55 41 -82 71 -69 77
7 2 -2 7 -19 11 -33 7 -171 111 -166 126 1 5 -2 8 -8 7 -5 -2 -18 13 -28 32
-10 19 -23 34 -30 32 -14 -3 -42 21 -42 36 0 5 -17 25 -37 45 -52 50 -60 61
-55 75 2 7 -9 25 -24 39 -16 14 -29 33 -30 42 -5 33 -27 91 -36 91 -4 0 -8 6
-8 14 0 8 -6 17 -12 20 -10 5 -10 7 0 12 17 8 15 28 -5 46 -10 8 -57 32 -104
52 -105 44 -216 95 -408 187 -79 38 -145 69 -146 69 -11 0 -190 111 -235 146
-71 54 -183 168 -221 225 -110 163 -103 307 20 429 66 66 137 107 252 148 219
77 401 101 814 108 308 5 369 12 358 40 -3 9 0 12 8 9 19 -7 86 28 81 43 -2 7
2 10 10 7 19 -7 52 21 42 37 -4 7 -4 10 1 6 4 -4 25 2 47 13 21 11 44 17 50
13 7 -5 8 -3 3 6 -6 10 -4 12 9 7 11 -5 15 -3 10 5 -5 8 -2 9 9 5 10 -3 17 -2
17 3 0 6 -7 10 -15 10 -13 0 -14 2 -3 14 9 10 18 11 31 4 23 -12 77 8 77 29 0
8 5 11 10 8 6 -3 20 -3 33 1 21 7 21 7 2 16 -15 6 -13 7 8 3 35 -7 70 3 61 17
-4 7 -2 8 4 4 15 -9 63 4 56 15 -3 5 8 6 23 4 15 -3 51 1 78 8 72 20 300 21
420 3z m1032 -718 c-3 -8 -6 -5 -6 6 -1 11 2 17 5 13 3 -3 4 -12 1 -19z"/>
<path d="M2780 4024 c-116 -13 -263 -51 -254 -66 3 -4 -2 -8 -10 -8 -8 0 -20
-8 -25 -17 -6 -10 -11 -12 -11 -5 0 15 -29 16 -50 1 -12 -8 -9 -9 10 -4 23 5
23 5 8 -8 -10 -8 -15 -16 -12 -19 2 -3 -6 -3 -18 -1 -15 3 -30 -3 -42 -16 -11
-12 -25 -21 -31 -21 -7 0 -15 -9 -18 -20 -3 -13 -11 -18 -20 -14 -9 3 -23 -5
-35 -20 -11 -14 -25 -26 -30 -26 -6 0 -14 -5 -18 -12 -4 -7 -3 -8 4 -4 7 4 12
2 12 -3 0 -6 -4 -12 -10 -12 -5 -1 -14 -3 -20 -4 -5 -1 -14 -3 -18 -4 -5 0
-14 -13 -20 -27 -7 -14 -16 -23 -21 -20 -13 8 -51 -32 -51 -54 0 -11 -4 -21
-10 -21 -5 -1 -13 -2 -17 -3 -5 0 -23 -11 -40 -24 -27 -19 -31 -27 -23 -42 7
-14 6 -20 -8 -26 -9 -4 -21 -6 -25 -5 -5 1 -5 -3 -2 -9 4 -7 -2 -21 -13 -33
-11 -12 -24 -39 -27 -60 -4 -21 -14 -41 -21 -44 -8 -3 -14 -12 -14 -20 0 -9
-13 -37 -29 -64 -17 -26 -33 -64 -37 -84 -3 -20 -9 -34 -12 -31 -8 9 -35 -35
-38 -60 -2 -17 4 -24 24 -30 18 -5 22 -8 11 -11 -20 -5 -39 -45 -39 -83 0 -17
-9 -39 -20 -50 -11 -11 -16 -20 -12 -20 12 0 38 -51 45 -87 5 -27 4 -31 -13
-28 -12 2 -21 -3 -25 -16 -4 -10 -13 -19 -21 -19 -8 0 -14 -4 -14 -9 0 -11
101 -48 245 -90 61 -18 137 -41 170 -51 74 -23 307 -82 435 -110 83 -19 332
-57 485 -75 28 -3 82 -10 120 -15 258 -33 468 -47 725 -46 l204 1 -1 45 c-1
54 -12 108 -24 116 -14 8 -11 24 4 22 8 -2 11 7 9 27 -5 51 -4 69 3 98 6 21 4
27 -9 27 -10 0 -14 5 -11 10 3 6 1 10 -4 10 -6 0 -11 5 -11 10 0 6 10 10 23
10 17 0 19 2 8 9 -8 5 -14 23 -14 40 0 17 -4 31 -9 31 -13 0 -4 44 12 57 13
10 13 13 -1 30 -24 28 -31 53 -14 53 8 0 15 -6 15 -12 1 -8 6 -6 14 5 7 9 18
17 24 17 6 0 9 10 7 23 -2 12 -9 58 -16 102 -12 78 -13 79 -24 45 -9 -25 -13
-30 -18 -17 -3 9 -1 19 5 23 7 4 2 12 -13 20 l-24 14 24 6 c23 7 23 7 -6 19
-23 10 -34 26 -51 73 -12 33 -19 67 -16 76 4 11 1 16 -11 16 -15 0 -15 3 -5
15 11 13 10 14 -4 9 -10 -4 -16 -1 -16 7 0 7 -3 9 -6 6 -10 -10 -65 83 -58 95
5 7 2 8 -5 4 -8 -6 -11 -2 -9 10 2 11 -2 18 -9 17 -7 -2 -12 0 -11 5 0 4 -2
15 -7 25 -4 10 -5 21 -1 24 3 4 6 -1 6 -11 0 -10 5 -14 12 -10 6 4 8 3 5 -3
-4 -6 0 -13 8 -17 8 -3 15 -2 15 3 0 14 -190 191 -204 191 -8 0 -16 7 -20 15
-3 8 -12 12 -21 9 -9 -4 -15 -3 -13 2 2 5 -1 11 -7 14 -5 3 -23 17 -40 33 -16
15 -35 25 -42 23 -7 -3 -12 -2 -10 2 1 4 -1 7 -4 7 -4 0 -15 7 -25 16 -21 17
-48 30 -79 36 -10 2 -22 8 -25 12 -7 12 -111 53 -118 47 -2 -3 -21 1 -40 10
-73 30 -358 60 -462 48z m925 -302 c-3 -3 -11 0 -18 7 -9 10 -8 11 6 5 10 -3
15 -9 12 -12z"/>
<path d="M1375 3668 c-169 -10 -335 -38 -470 -79 -109 -34 -157 -56 -225 -103
-57 -40 -65 -49 -101 -121 -25 -50 -29 -68 -24 -105 12 -82 57 -164 141 -253
48 -51 151 -147 158 -147 3 0 38 -21 78 -47 40 -25 134 -75 208 -111 428 -203
629 -283 941 -373 375 -107 555 -144 904 -188 324 -40 441 -46 870 -46 435 0
512 5 685 46 488 113 669 308 509 548 -78 117 -208 215 -445 334 -140 71 -409
180 -427 174 -6 -2 61 -32 149 -66 367 -146 507 -245 545 -385 23 -84 -26
-190 -117 -255 -102 -74 -239 -119 -487 -161 -105 -17 -167 -21 -342 -21 -277
1 -579 22 -825 56 -58 8 -178 24 -266 35 -181 22 -289 45 -574 119 -373 96
-531 145 -655 201 -247 113 -332 161 -482 271 -280 207 -346 392 -191 535 113
104 231 127 669 128 267 1 319 -1 334 -14 17 -14 18 -13 12 3 -4 11 -1 17 9
17 8 0 12 5 9 11 -8 12 -360 10 -590 -3z"/>
<path d="M1325 3590 c-194 -13 -316 -56 -376 -131 -24 -31 -29 -46 -29 -92 0
-31 4 -67 10 -81 12 -33 150 -177 220 -230 122 -93 303 -196 427 -242 52 -20
63 -21 63 -9 0 8 -4 15 -9 15 -19 0 -24 43 -6 56 9 7 14 17 11 23 -4 5 2 15
11 21 13 8 14 13 6 16 -18 8 -16 25 3 39 16 11 16 15 2 43 -14 26 -14 31 -1
36 7 3 13 11 12 18 -5 37 1 50 21 45 13 -3 20 0 20 9 0 8 -4 14 -10 14 -12 0
-1 62 13 71 5 4 7 14 4 23 -4 9 -2 16 4 16 7 0 9 13 5 35 -5 27 -4 35 7 35 9
0 17 14 21 34 4 19 13 39 21 46 8 7 15 19 15 27 0 8 4 12 9 9 5 -3 12 11 16
31 4 21 20 51 36 67 16 16 29 34 29 38 0 5 6 6 13 2 9 -5 9 -3 -1 7 -10 11
-59 14 -235 15 -122 1 -271 -2 -332 -6z m355 -450 c0 -5 -7 -10 -15 -10 -8 0
-15 5 -15 10 0 6 7 10 15 10 8 0 15 -4 15 -10z"/>
<path d="M4208 3103 c6 -2 12 -18 12 -35 0 -18 8 -37 18 -44 16 -13 16 -13 -3
-15 -11 -1 -26 -1 -32 0 -7 1 -13 -3 -13 -9 0 -5 3 -9 8 -9 4 1 14 1 22 0 13
-1 13 -2 0 -11 -11 -7 -12 -12 -4 -17 21 -14 35 -156 20 -203 -5 -19 -5 -21 3
-10 7 9 11 10 11 3 0 -6 -4 -14 -9 -17 -11 -7 -20 -66 -11 -66 4 0 -1 -24 -11
-52 -12 -38 -14 -56 -7 -65 7 -9 7 -13 -1 -13 -8 0 -10 -8 -6 -22 4 -16 3 -19
-3 -10 -10 15 -22 -10 -39 -86 l-11 -43 57 6 c324 38 544 133 595 257 21 50
20 83 -5 135 -28 59 -83 103 -214 172 -108 58 -353 162 -378 160 -9 0 -9 -2 1
-6z"/>
<path d="M1820 2310 c0 -5 7 -10 15 -10 9 0 18 -7 21 -15 4 -8 9 -13 13 -10
15 9 91 -82 91 -109 0 -19 10 -32 35 -48 19 -13 35 -28 35 -35 0 -14 38 -38
60 -38 10 0 15 -10 14 -33 -1 -17 2 -33 7 -33 32 -5 59 -20 59 -35 0 -13 45
-29 100 -36 17 -2 25 -9 24 -21 -3 -32 56 -86 100 -92 21 -2 49 -11 62 -20 13
-8 33 -15 44 -15 12 0 18 -4 15 -10 -4 -6 7 -10 25 -10 18 0 29 4 25 10 -3 6
-1 10 5 10 7 0 14 -8 17 -18 5 -19 93 -58 93 -42 0 6 9 10 21 10 13 0 18 -4
13 -12 -6 -10 -4 -10 8 0 16 13 48 7 48 -10 0 -6 6 -8 14 -5 8 3 23 -3 35 -14
12 -11 21 -15 21 -10 0 6 8 7 18 4 14 -6 15 -4 4 9 -9 11 -10 18 -2 23 5 3 10
3 10 -2 0 -4 22 -8 50 -7 47 1 49 0 44 -23 -7 -25 1 -28 40 -13 14 5 26 17 26
26 0 14 3 14 15 4 11 -9 33 -11 78 -6 34 4 67 7 74 8 7 1 10 5 8 9 -3 4 15 10
40 13 24 4 47 12 51 17 10 18 57 30 118 33 41 2 62 7 71 19 14 19 30 24 19 6
-4 -7 -1 -10 7 -7 8 3 13 12 11 21 -2 11 3 16 15 15 49 -4 75 2 70 16 -4 11
-1 13 10 9 11 -4 14 -3 9 6 -5 7 0 21 11 33 10 11 17 23 15 26 -2 3 14 11 34
18 20 7 40 17 43 23 4 5 26 11 49 14 43 4 106 42 96 59 -3 4 -74 8 -157 8
-184 0 -390 13 -637 40 -454 50 -655 91 -1125 226 -132 38 -135 38 -135 24z
m1014 -606 c3 -8 2 -12 -4 -9 -6 3 -10 10 -10 16 0 14 7 11 14 -7z"/>
</g>
</svg>
